<svg width="125" height="139" viewBox="0 0 125 139" fill="none" xmlns="http://www.w3.org/2000/svg">
<path d="M88.5668 101.67H36.3661V139H88.5668V101.67Z" fill="#3270B0"/>
<path d="M99.5706 7.57329V0H25.4294V7.57329H0V24.7975C0 40.6143 11.1379 53.8173 26.0333 57.0342C28.5158 70.4383 38.3119 81.2956 51.1943 85.2498V97.8496H73.8728V85.1827C86.6881 81.2285 96.5513 70.4383 98.9667 57.0342C113.862 53.8173 125 40.6143 125 24.7975V7.57329H99.5706ZM25.4294 48.5227C15.365 45.3057 8.05153 35.8558 8.05153 24.7975V15.6157H25.4294V48.5227ZM91.3849 53.2141C89.9758 67.4894 77.8315 78.7488 63.1374 78.7488H61.8626C47.2356 78.7488 35.1583 67.6234 33.6151 53.4151V8.04243H91.3849V53.2141ZM116.948 24.7975C116.948 35.9229 109.635 45.3057 99.5706 48.5227V15.6157H116.948V24.7975Z" fill="#3270B0"/>
</svg>
