<svg width="117" height="65" viewBox="0 0 117 65" fill="none" xmlns="http://www.w3.org/2000/svg">
<path fill-rule="evenodd" clip-rule="evenodd" d="M16.6304 22.1012H22.5003V29.3623H28.7609V22.1012H34.6308V41.9199H28.7609V34.0703H22.5003V41.9199H16.6304V22.1012ZM55.5656 22.1012V41.9199H49.8923V26.8117H46.174V32.5014C46.174 35.052 45.9775 38.1911 44.4132 39.9578C42.8477 41.9199 39.9134 42.5084 36.5871 41.9199V37.0141C39.7168 37.6026 40.5007 36.4256 40.5007 32.5014V22.1012H55.5656ZM60.4574 22.1012H66.3261L69.6524 33.875L72.9787 22.1012H78.8475L81.5876 41.9199H76.1073L74.7384 31.3244L71.6087 41.9199H67.6962L64.5653 31.3244L63.1952 41.9199H57.7173L60.4574 22.1012ZM83.7392 22.1012H89.608V30.1462L95.2836 22.1012H101.739L94.3043 31.9129L101.934 41.9199H94.8905L89.608 33.875V41.9199H83.7392V22.1012ZM58.5 0.911377C23.283 0.911377 0 13.6644 0 32.5014C0 51.1418 23.283 64.0914 58.5 64.0914C93.9124 64.0914 117 51.1418 117 32.5014C117 13.6644 93.9124 0.911377 58.5 0.911377ZM58.5 61.1488C25.4346 61.1488 3.32631 49.5717 3.32631 32.5014C3.32631 15.2345 25.4346 3.85393 58.5 3.85393C91.7608 3.85393 113.674 15.2345 113.674 32.5014C113.674 49.5717 91.7608 61.1488 58.5 61.1488ZM58.5 6.59992C27.392 6.59992 6.65262 17 6.65262 32.5014C6.65262 48.0027 27.392 58.4017 58.5 58.4017C89.608 58.4017 110.347 48.0027 110.347 32.5014C110.347 17 89.608 6.59992 58.5 6.59992ZM58.5 57.8131C27.7828 57.8131 7.23879 47.6096 7.23879 32.5014C7.23879 17.3932 27.7828 7.1896 58.5 7.1896C89.2172 7.1896 109.761 17.3932 109.761 32.5014C109.761 47.6096 89.2172 57.8131 58.5 57.8131Z" fill="white"/>
</svg>
