<svg width="87" height="145" viewBox="0 0 87 145" fill="none" xmlns="http://www.w3.org/2000/svg">
<path d="M43.8385 67.7209C23.461 67.7209 6.97125 84.199 6.97125 104.562C6.97125 124.925 23.461 141.403 43.8385 141.403C64.216 141.403 80.7057 124.925 80.7057 104.562C80.7057 84.199 64.216 67.7209 43.8385 67.7209ZM43.8385 133.365C27.9521 133.365 15.015 120.437 15.015 104.562C15.015 88.6869 27.9521 75.759 43.8385 75.759C59.7249 75.759 72.6619 88.6869 72.6619 104.562C72.6619 120.437 59.7249 133.365 43.8385 133.365ZM56.4404 62.0272L27.2147 0H0L29.2256 62.0272H56.4404ZM86.3363 0H59.1216L45.3132 28.9371L58.7865 57.4723L86.3363 0Z" fill="#3270B0"/>
<path d="M33.5391 93.9L43.0391 87H48.4391V122H40.9391V97.65L37.4391 100.1L33.5391 93.9Z" fill="#3270B0"/>
</svg>
