<svg width="83" height="100" viewBox="0 0 83 100" fill="none" xmlns="http://www.w3.org/2000/svg">
<path d="M73.7778 96.0526H9.22223C6.32382 96.0526 3.95239 93.6842 3.95239 90.7895V9.21055C3.95239 6.31581 6.32382 3.94739 9.22223 3.94739H73.7778C76.6762 3.94739 79.0476 6.31581 79.0476 9.21055V90.7895C79.0476 93.6842 76.6762 96.0526 73.7778 96.0526Z" stroke="#37B7D6" stroke-width="6" stroke-miterlimit="10" stroke-linejoin="round"/>
<path d="M45.4524 20.3948C47.0531 20.3948 48.3508 19.0987 48.3508 17.5C48.3508 15.9013 47.0531 14.6053 45.4524 14.6053C43.8516 14.6053 42.554 15.9013 42.554 17.5C42.554 19.0987 43.8516 20.3948 45.4524 20.3948Z" fill="#37B7D6"/>
<path d="M55.2016 20.3948C56.8024 20.3948 58.1 19.0987 58.1 17.5C58.1 15.9013 56.8024 14.6053 55.2016 14.6053C53.6009 14.6053 52.3032 15.9013 52.3032 17.5C52.3032 19.0987 53.6009 20.3948 55.2016 20.3948Z" fill="#37B7D6"/>
<path d="M64.8191 20.3948C66.4198 20.3948 67.7175 19.0987 67.7175 17.5C67.7175 15.9013 66.4198 14.6053 64.8191 14.6053C63.2183 14.6053 61.9207 15.9013 61.9207 17.5C61.9207 19.0987 63.2183 20.3948 64.8191 20.3948Z" fill="#37B7D6"/>
</svg>
